<svg width="589" height="312" viewBox="0 0 589 312" fill="none" xmlns="http://www.w3.org/2000/svg">

<path d="M545.503 204.791C538.122 204.791 531.072 203.579 524.352 201.155C517.632 198.732 511.849 195.152 507.002 190.415L514.933 176.039C520.111 180.225 525.178 183.31 530.135 185.293C535.203 187.275 540.05 188.267 544.676 188.267C548.973 188.267 552.388 187.496 554.921 185.954C557.565 184.411 558.887 182.098 558.887 179.014C558.887 176.92 558.171 175.323 556.739 174.222C555.307 173.01 553.214 171.963 550.46 171.082C547.816 170.201 544.566 169.209 540.711 168.108C534.321 166.015 528.979 163.977 524.682 161.994C520.386 160.011 517.137 157.532 514.933 154.558C512.84 151.474 511.794 147.563 511.794 142.826C511.794 137.098 513.226 132.196 516.09 128.12C519.064 123.934 523.14 120.684 528.318 118.371C533.605 116.058 539.774 114.901 546.824 114.901C552.993 114.901 558.832 115.892 564.34 117.875C569.848 119.748 574.86 122.832 579.376 127.129L570.454 141.174C566.047 137.759 561.861 135.28 557.895 133.738C553.93 132.086 549.909 131.26 545.833 131.26C543.52 131.26 541.317 131.535 539.223 132.086C537.241 132.637 535.588 133.573 534.266 134.895C533.055 136.107 532.449 137.869 532.449 140.182C532.449 142.275 532.999 143.928 534.101 145.14C535.313 146.241 537.075 147.233 539.389 148.114C541.812 148.995 544.731 149.987 548.146 151.088C555.086 153.071 560.925 155.109 565.662 157.202C570.509 159.295 574.144 161.884 576.567 164.968C578.991 167.943 580.203 172.073 580.203 177.361C580.203 185.954 577.063 192.673 570.784 197.52C564.505 202.367 556.078 204.791 545.503 204.791Z" fill="#252627"/>
<path d="M471.495 203.138V116.553H493.637V203.138H471.495Z" fill="#252627"/>
<path d="M468.143 88.8017V89.8907C468.143 97.5132 474.322 103.692 481.945 103.692H483.034C490.656 103.692 496.835 97.5132 496.835 89.8907V88.8017C496.835 81.1792 490.656 75 483.034 75H481.945C474.322 75 468.143 81.1792 468.143 88.8017Z" fill="#F4B616"/>
<path d="M452.218 203.138H430.076V154.558C430.076 147.728 428.864 142.716 426.441 139.521C424.127 136.217 420.878 134.564 416.691 134.564C412.395 134.564 408.264 136.272 404.299 139.687C400.443 142.991 397.689 147.343 396.037 152.741V203.138H373.895V154.558C373.895 147.618 372.683 142.551 370.259 139.356C367.946 136.162 364.696 134.564 360.51 134.564C356.214 134.564 352.083 136.217 348.117 139.521C344.262 142.826 341.508 147.177 339.856 152.575V203.138H317.714V116.553H337.707V132.581C341.012 126.963 345.419 122.667 350.927 119.693C356.434 116.608 362.769 115.066 369.929 115.066C377.089 115.066 382.652 116.829 386.618 120.354C390.694 123.879 393.283 128.23 394.384 133.408C397.909 127.459 402.371 122.942 407.769 119.858C413.277 116.663 419.445 115.066 426.275 115.066C431.673 115.066 436.024 116.058 439.329 118.04C442.744 119.913 445.388 122.502 447.261 125.807C449.133 129.001 450.4 132.636 451.061 136.712C451.832 140.788 452.218 144.919 452.218 149.105V203.138Z" fill="#252627"/>
<path d="M258.949 204.791C252.009 204.791 245.73 203.634 240.112 201.321C234.494 198.897 229.702 195.647 225.736 191.572C221.77 187.386 218.686 182.649 216.483 177.361C214.39 171.963 213.343 166.29 213.343 160.341C213.343 152.08 215.161 144.534 218.796 137.704C222.542 130.874 227.829 125.421 234.659 121.345C241.599 117.159 249.751 115.066 259.114 115.066C268.588 115.066 276.685 117.159 283.404 121.345C290.124 125.421 295.247 130.874 298.772 137.704C302.407 144.423 304.224 151.694 304.224 159.515C304.224 160.837 304.169 162.214 304.059 163.646C303.949 164.968 303.839 166.07 303.729 166.951H236.807C237.248 171.357 238.515 175.213 240.608 178.518C242.811 181.822 245.565 184.356 248.87 186.119C252.284 187.771 255.92 188.597 259.775 188.597C264.182 188.597 268.313 187.551 272.168 185.458C276.134 183.255 278.833 180.39 280.265 176.865L299.267 182.153C297.174 186.559 294.145 190.47 290.179 193.885C286.324 197.3 281.752 199.999 276.464 201.982C271.177 203.854 265.338 204.791 258.949 204.791ZM236.311 152.906H281.587C281.146 148.499 279.879 144.699 277.786 141.504C275.803 138.2 273.16 135.666 269.855 133.903C266.55 132.031 262.86 131.094 258.784 131.094C254.818 131.094 251.183 132.031 247.878 133.903C244.684 135.666 242.04 138.2 239.947 141.504C237.964 144.699 236.752 148.499 236.311 152.906Z" fill="#252627"/>
<path d="M199.543 203.138H177.401V154.558C177.401 147.838 176.079 142.826 173.436 139.521C170.902 136.217 167.377 134.564 162.86 134.564C160.217 134.564 157.407 135.335 154.433 136.878C151.459 138.42 148.76 140.568 146.336 143.322C144.023 145.966 142.316 149.05 141.214 152.575V203.138H119.072V82.5142H141.214V132.581C144.409 127.073 148.76 122.777 154.268 119.693C159.776 116.608 165.78 115.066 172.279 115.066C177.897 115.066 182.469 116.058 185.994 118.04C189.519 119.913 192.273 122.502 194.256 125.807C196.239 129.001 197.616 132.637 198.387 136.712C199.158 140.678 199.543 144.809 199.543 149.105V203.138Z" fill="#252627"/>
<path d="M106.656 105.813H69.1468V203.138H46.5092V105.813H9V85.8189H106.656V105.813Z" fill="#252627"/>
<path d="M581 235.541V237.237H570.783V222.187H580.809V223.882H572.691V228.758H579.749V230.348H572.691V235.541H581Z" fill="#252627"/>
<path d="M560.348 223.882H555.155V237.237H553.247V223.882H548.054V222.187H560.348V223.882Z" fill="#252627"/>
<path d="M526.823 225.705V237.237H524.915V222.187H526.527L535.726 233.951V222.208H537.634V237.237H535.896L526.823 225.705Z" fill="#252627"/>
<path d="M514.031 235.541V237.237H503.814V222.187H513.84V223.882H505.722V228.758H512.781V230.348H505.722V235.541H514.031Z" fill="#252627"/>
<path d="M486.456 237.343C485.467 237.343 484.541 237.131 483.679 236.707C482.831 236.269 482.09 235.69 481.454 234.969C480.818 234.234 480.323 233.414 479.97 232.51C479.616 231.591 479.44 230.645 479.44 229.669C479.44 228.652 479.616 227.691 479.97 226.787C480.323 225.868 480.811 225.055 481.432 224.349C482.068 223.642 482.81 223.091 483.658 222.695C484.52 222.286 485.453 222.081 486.456 222.081C487.912 222.081 489.113 222.385 490.06 222.992C491.007 223.6 491.72 224.391 492.201 225.366L490.738 226.384C490.3 225.508 489.699 224.858 488.936 224.434C488.173 224.01 487.332 223.798 486.414 223.798C485.651 223.798 484.958 223.96 484.336 224.285C483.715 224.61 483.178 225.055 482.725 225.621C482.287 226.172 481.948 226.801 481.708 227.507C481.482 228.214 481.369 228.949 481.369 229.712C481.369 230.517 481.496 231.281 481.75 232.001C482.019 232.708 482.393 233.337 482.874 233.888C483.354 234.425 483.913 234.849 484.548 235.16C485.184 235.471 485.87 235.626 486.605 235.626C487.467 235.626 488.286 235.407 489.064 234.969C489.841 234.531 490.576 233.86 491.268 232.955V234.926C489.911 236.538 488.308 237.343 486.456 237.343ZM491.035 231.175H487.792V229.733H492.646V237.237H491.035V231.175Z" fill="#252627"/>
<path d="M466.641 237.237V222.187H468.549V237.237H466.641Z" fill="#252627"/>
<path d="M445.995 237.237V222.187H447.903V235.541H456.297V237.237H445.995Z" fill="#252627"/>
<path d="M435.111 235.541V237.237H424.894V222.187H434.92V223.882H426.801V228.758H433.86V230.348H426.801V235.541H435.111Z" fill="#252627"/>
<path d="M414.459 223.882H409.266V237.237H407.358V223.882H402.164V222.187H414.459V223.882Z" fill="#252627"/>
<path d="M380.934 225.705V237.237H379.026V222.187H380.638L389.837 233.951V222.208H391.745V237.237H390.007L380.934 225.705Z" fill="#252627"/>
<path d="M365.253 237.237V222.187H367.161V237.237H365.253Z" fill="#252627"/>
<path d="M334.253 222.187H335.864L342.011 237.237H339.976L338.196 232.828H331.879L330.119 237.237H328.084L334.253 222.187ZM337.772 231.344L335.058 224.391L332.26 231.344H337.772Z" fill="#252627"/>
<path d="M306.19 229.606C306.19 228.687 306.346 227.79 306.656 226.914C306.981 226.024 307.448 225.218 308.055 224.497C308.677 223.762 309.433 223.183 310.324 222.759C311.214 222.321 312.224 222.102 313.355 222.102C314.697 222.102 315.849 222.413 316.81 223.035C317.771 223.642 318.485 224.427 318.951 225.388L317.446 226.363C317.149 225.727 316.768 225.225 316.301 224.858C315.849 224.476 315.354 224.208 314.817 224.052C314.295 223.897 313.779 223.819 313.27 223.819C312.436 223.819 311.694 223.989 311.044 224.328C310.408 224.667 309.871 225.119 309.433 225.684C308.995 226.25 308.663 226.886 308.437 227.592C308.225 228.285 308.119 228.984 308.119 229.691C308.119 230.468 308.246 231.217 308.501 231.938C308.769 232.658 309.137 233.294 309.603 233.845C310.069 234.397 310.62 234.835 311.256 235.16C311.892 235.485 312.585 235.647 313.334 235.647C313.857 235.647 314.394 235.555 314.945 235.372C315.496 235.188 316.012 234.905 316.492 234.524C316.973 234.128 317.354 233.619 317.637 232.998L319.227 233.867C318.916 234.616 318.435 235.252 317.785 235.774C317.135 236.297 316.407 236.693 315.602 236.962C314.81 237.23 314.026 237.364 313.249 237.364C312.217 237.364 311.27 237.145 310.408 236.707C309.546 236.255 308.797 235.661 308.161 234.927C307.54 234.178 307.052 233.344 306.699 232.425C306.36 231.493 306.19 230.553 306.19 229.606Z" fill="#252627"/>
<path d="M293.391 237.237V222.187H295.299V237.237H293.391Z" fill="#252627"/>
<path d="M269.951 237.237V222.187H275.165C276.776 222.187 278.119 222.526 279.193 223.204C280.281 223.868 281.093 224.773 281.63 225.917C282.167 227.048 282.436 228.306 282.436 229.691C282.436 231.217 282.139 232.545 281.546 233.676C280.952 234.806 280.111 235.682 279.023 236.304C277.935 236.926 276.649 237.237 275.165 237.237H269.951ZM280.507 229.691C280.507 228.56 280.295 227.557 279.871 226.681C279.461 225.804 278.861 225.119 278.069 224.624C277.278 224.13 276.31 223.882 275.165 223.882H271.858V235.541H275.165C276.324 235.541 277.299 235.287 278.09 234.778C278.882 234.255 279.482 233.556 279.892 232.679C280.302 231.789 280.507 230.793 280.507 229.691Z" fill="#252627"/>
<path d="M256.177 237.237V222.187H258.085V237.237H256.177ZM257.788 220.385L256.559 219.961L257.788 217.82H259.654L257.788 220.385Z" fill="#252627"/>
<path d="M233.979 237.237V222.187H240.423C241.087 222.187 241.695 222.328 242.246 222.611C242.797 222.879 243.277 223.247 243.687 223.713C244.097 224.165 244.415 224.681 244.641 225.26C244.867 225.826 244.98 226.405 244.98 226.999C244.98 227.691 244.846 228.348 244.577 228.97C244.323 229.592 243.956 230.122 243.475 230.56C243.009 230.998 242.458 231.302 241.822 231.471L245.468 237.237H243.306L239.872 231.832H235.886V237.237H233.979ZM235.886 230.136H240.444C240.967 230.136 241.419 229.994 241.8 229.712C242.196 229.415 242.5 229.026 242.712 228.546C242.938 228.065 243.051 227.55 243.051 226.999C243.051 226.433 242.924 225.917 242.67 225.451C242.415 224.971 242.083 224.589 241.673 224.306C241.263 224.024 240.811 223.882 240.317 223.882H235.886V230.136Z" fill="#252627"/>
<path d="M215.921 237.343C214.719 237.343 213.709 237.138 212.889 236.728C212.07 236.304 211.413 235.739 210.918 235.032C210.423 234.312 210.063 233.499 209.837 232.595C209.611 231.69 209.498 230.758 209.498 229.797V222.187H211.405V229.797C211.405 230.531 211.476 231.252 211.617 231.959C211.773 232.651 212.02 233.273 212.359 233.824C212.699 234.375 213.158 234.813 213.737 235.138C214.317 235.463 215.037 235.626 215.899 235.626C216.776 235.626 217.503 235.463 218.083 235.138C218.662 234.799 219.121 234.354 219.461 233.803C219.8 233.238 220.04 232.609 220.181 231.916C220.337 231.224 220.414 230.517 220.414 229.797V222.187H222.322V229.797C222.322 230.814 222.202 231.782 221.962 232.701C221.736 233.605 221.368 234.404 220.86 235.096C220.351 235.788 219.687 236.34 218.867 236.749C218.062 237.145 217.079 237.343 215.921 237.343Z" fill="#252627"/>
<path d="M190.095 234.99C190.363 235.174 190.731 235.35 191.197 235.52C191.677 235.675 192.243 235.753 192.893 235.753C193.557 235.753 194.101 235.647 194.525 235.435C194.949 235.209 195.274 234.877 195.5 234.439C195.726 233.987 195.882 233.414 195.966 232.722C196.051 232.029 196.094 231.21 196.094 230.263V222.187H198.001V229.839C198.001 230.955 197.945 231.98 197.832 232.913C197.719 233.845 197.493 234.658 197.153 235.35C196.814 236.029 196.305 236.552 195.627 236.919C194.963 237.286 194.073 237.47 192.956 237.47C192.25 237.47 191.628 237.392 191.091 237.237C190.554 237.081 190.059 236.848 189.607 236.537L190.095 234.99Z" fill="#252627"/>
<path d="M160.087 237.343C159.027 237.343 158.066 237.131 157.204 236.707C156.342 236.283 155.593 235.711 154.957 234.99C154.335 234.255 153.855 233.436 153.515 232.531C153.176 231.613 153.007 230.673 153.007 229.712C153.007 228.709 153.183 227.755 153.537 226.85C153.904 225.932 154.406 225.119 155.042 224.412C155.692 223.692 156.448 223.126 157.31 222.717C158.172 222.293 159.112 222.081 160.129 222.081C161.189 222.081 162.15 222.3 163.012 222.738C163.874 223.176 164.616 223.762 165.238 224.497C165.859 225.232 166.34 226.052 166.679 226.956C167.018 227.861 167.188 228.786 167.188 229.733C167.188 230.736 167.011 231.697 166.658 232.616C166.305 233.52 165.803 234.333 165.153 235.054C164.517 235.76 163.768 236.318 162.906 236.728C162.044 237.138 161.104 237.343 160.087 237.343ZM154.936 229.712C154.936 230.475 155.056 231.217 155.296 231.938C155.55 232.644 155.904 233.273 156.356 233.824C156.808 234.375 157.352 234.813 157.988 235.138C158.624 235.464 159.331 235.626 160.108 235.626C160.913 235.626 161.634 235.456 162.27 235.117C162.906 234.778 163.443 234.326 163.881 233.761C164.333 233.195 164.672 232.559 164.899 231.853C165.139 231.146 165.259 230.433 165.259 229.712C165.259 228.949 165.132 228.214 164.877 227.507C164.637 226.801 164.284 226.172 163.817 225.621C163.365 225.055 162.821 224.617 162.185 224.306C161.563 223.981 160.871 223.819 160.108 223.819C159.302 223.819 158.582 223.989 157.946 224.328C157.31 224.653 156.766 225.098 156.314 225.663C155.875 226.228 155.536 226.864 155.296 227.571C155.056 228.263 154.936 228.977 154.936 229.712Z" fill="#252627"/>
<path d="M136.506 222.187H138.117L144.265 237.237H142.23L140.449 232.828H134.132L132.373 237.237H130.338L136.506 222.187ZM140.025 231.344L137.312 224.391L134.514 231.344H140.025ZM138.626 220.003C138.202 220.003 137.842 219.933 137.545 219.791C137.248 219.636 136.973 219.487 136.718 219.346C136.478 219.191 136.203 219.113 135.892 219.113C135.581 219.113 135.348 219.191 135.192 219.346C135.051 219.502 134.959 219.664 134.917 219.834C134.874 220.003 134.853 220.102 134.853 220.13H133.751C133.751 220.046 133.779 219.89 133.835 219.664C133.906 219.424 134.019 219.177 134.175 218.922C134.33 218.654 134.542 218.428 134.811 218.244C135.079 218.046 135.425 217.947 135.849 217.947C136.259 217.947 136.598 218.025 136.867 218.18C137.149 218.322 137.418 218.47 137.672 218.625C137.941 218.781 138.245 218.859 138.584 218.859C138.951 218.859 139.213 218.781 139.368 218.625C139.538 218.456 139.644 218.286 139.686 218.117C139.743 217.947 139.771 217.848 139.771 217.82H140.873C140.873 217.905 140.838 218.06 140.767 218.286C140.711 218.512 140.597 218.76 140.428 219.028C140.258 219.297 140.025 219.53 139.728 219.728C139.446 219.911 139.078 220.003 138.626 220.003Z" fill="#252627"/>
<path d="M122.921 223.882H117.728V237.237H115.82V223.882H110.627V222.187H122.921V223.882Z" fill="#252627"/>
<path d="M99.7233 225.345C99.5538 225.147 99.3276 224.957 99.045 224.773C98.7624 224.589 98.4444 224.427 98.0911 224.285C97.7378 224.13 97.3492 224.01 96.9253 223.925C96.5154 223.826 96.0844 223.777 95.6322 223.777C94.4734 223.777 93.6184 223.996 93.0673 224.434C92.5162 224.872 92.2406 225.472 92.2406 226.235C92.2406 226.772 92.3819 227.196 92.6645 227.507C92.9472 227.818 93.3782 228.073 93.9576 228.27C94.5511 228.468 95.3001 228.673 96.2045 228.885C97.2503 229.111 98.1547 229.387 98.9178 229.712C99.6809 230.037 100.267 230.475 100.677 231.026C101.087 231.563 101.292 232.284 101.292 233.188C101.292 233.909 101.151 234.538 100.868 235.075C100.6 235.598 100.218 236.036 99.7233 236.389C99.2287 236.728 98.6493 236.983 97.9851 237.152C97.3209 237.308 96.6002 237.385 95.823 237.385C95.0599 237.385 94.3109 237.308 93.576 237.152C92.8553 236.983 92.1699 236.742 91.5199 236.432C90.8698 236.121 90.2621 235.732 89.6969 235.266L90.6084 233.655C90.8345 233.895 91.1242 234.135 91.4775 234.375C91.8449 234.601 92.2547 234.813 92.7069 235.011C93.1733 235.209 93.675 235.372 94.212 235.499C94.749 235.612 95.3001 235.668 95.8654 235.668C96.9394 235.668 97.7732 235.478 98.3667 235.096C98.9602 234.7 99.257 234.128 99.257 233.379C99.257 232.814 99.0874 232.362 98.7482 232.022C98.4232 231.683 97.9357 231.401 97.2856 231.175C96.6356 230.948 95.8442 230.722 94.9115 230.496C93.894 230.242 93.039 229.966 92.3466 229.669C91.6541 229.359 91.1312 228.956 90.7779 228.461C90.4388 227.967 90.2692 227.324 90.2692 226.532C90.2692 225.571 90.5024 224.759 90.9687 224.095C91.4351 223.43 92.0781 222.929 92.8977 222.589C93.7173 222.25 94.643 222.081 95.6746 222.081C96.3529 222.081 96.9818 222.151 97.5612 222.293C98.1547 222.434 98.7058 222.632 99.2146 222.886C99.7233 223.141 100.19 223.444 100.614 223.798L99.7233 225.345Z" fill="#252627"/>
<path d="M79.9996 235.541V237.237H69.7823V222.187H79.8088V223.882H71.6901V228.758H78.7489V230.348H71.6901V235.541H79.9996Z" fill="#252627"/>
<path d="M52.4243 237.343C51.4351 237.343 50.5095 237.131 49.6474 236.707C48.7995 236.269 48.0576 235.69 47.4217 234.969C46.7857 234.234 46.2911 233.414 45.9378 232.51C45.5845 231.591 45.4079 230.645 45.4079 229.669C45.4079 228.652 45.5845 227.691 45.9378 226.787C46.2911 225.868 46.7787 225.055 47.4005 224.349C48.0364 223.642 48.7783 223.091 49.6262 222.695C50.4883 222.286 51.421 222.081 52.4243 222.081C53.8799 222.081 55.0811 222.385 56.0279 222.992C56.9747 223.6 57.6884 224.391 58.1689 225.366L56.7062 226.384C56.2681 225.508 55.6675 224.858 54.9044 224.434C54.1413 224.01 53.3005 223.798 52.3819 223.798C51.6188 223.798 50.9263 223.96 50.3045 224.285C49.6827 224.61 49.1457 225.055 48.6935 225.621C48.2554 226.172 47.9163 226.801 47.676 227.507C47.4499 228.214 47.3369 228.949 47.3369 229.712C47.3369 230.517 47.4641 231.281 47.7184 232.001C47.9869 232.708 48.3614 233.337 48.8419 233.888C49.3224 234.425 49.8806 234.849 50.5165 235.16C51.1524 235.471 51.8378 235.626 52.5727 235.626C53.4347 235.626 54.2544 235.407 55.0316 234.969C55.8089 234.531 56.5437 233.86 57.2362 232.955V234.926C55.8795 236.538 54.2756 237.343 52.4243 237.343ZM57.003 231.175H53.7598V229.733H58.614V237.237H57.003V231.175Z" fill="#252627"/>
</svg>
